***************************** TPB IS BENEDICTION TO ME ****************************
*                                                                                 *
*										  *
*	        *                       *                       *	          *
*              ***                     ***                     ***                *
*	      *****                   *****                   *****		  *
*            *******                 *******                 *******		  *
*           *********		    *********               *********             *
*          ***********	           ***********             *********** 		  *
*         *************           *************           *************           *
*        ***************         ***************         ***************	  *
*       *****************       *****************       *****************         *
*      *******************     *******************     *******************        *
*     *** TPB IS D BEST ***   *** TPB IS D BEST ***   *** TPB IS D BEST *** 	  *
*      *******************     *******************     *******************	  *
*       *****************       *****************       *****************         *
*        ***************         ***************         ***************          *
*         *************           *************           *************	 	  *
*          ***********             ***********             ***********            *
*           *********               *********               *********             *
*            *******                 *******                 *******              *
*             *****                   *****		      *****               *
*	       ***                     ***                     ***                *
*	        *                       *                       *                 *
*										  *
*										  *
***************************** TPB IS BENEDICTION TO ME ****************************



Screen Link :---

 
http://www.shotpix.com/images/58231385142438875870.jpg
 
http://www.imagefruit.com/img/7157/shuknolanka-poster1.jpg



General Info :---


Format                           : Matroska
File size                        : 361 MiB
Duration                         : 1h 45mn
Overall bit rate                 : 480 Kbps

Video
ID                               : 1
Format                           : AVC
Format/Info                      : Advanced Video Codec
Format profile                   : High@L4.0
Format settings, CABAC           : Yes
Format settings, ReFrames        : 3 frames
Codec ID                         : V_MPEG4/ISO/AVC
Duration                         : 1h 45mn
Bit rate mode                    : Variable
Bit rate                         : 351 Kbps
Maximum bit rate                 : 25.0 Mbps
Width                            : 592 pixels
Height                           : 336 pixels
Display aspect ratio             : 16:9
Frame rate                       : 23.976 fps
Color space                      : YUV
Chroma subsampling               : 4:2:0
Bit depth                        : 8 bits
Scan type                        : Progressive
Bits/(Pixel*Frame)               : 0.074
Stream size                      : 258 MiB (71%)

Audio
ID                               : 2
Format                           : MPEG Audio
Format version                   : Version 1
Format profile                   : Layer 2
Codec ID                         : A_MPEG/L2
Codec ID/Hint                    : MP2
Duration                         : 1h 45mn
Bit rate mode                    : Constant
Bit rate                         : 128 Kbps
Channel(s)                       : 2 channels
Sampling rate                    : 44.1 KHz
Compression mode                 : Lossy
Stream size                      : 96.3 MiB (27%)



***************************** TPB IS BENEDICTION TO ME ****************************
*                                                                                 *
*										  *
*	        *                       *                       *	          *
*              ***                     ***                     ***                *
*	      *****                   *****                   *****		  *
*            *******                 *******                 *******		  *
*           *********		    *********               *********             *
*          ***********	           ***********             *********** 		  *
*         *************           *************           *************           *
*        ***************         ***************         ***************	  *
*       *****************       *****************       *****************         *
*      *******************     *******************     *******************        *
*     *** TPB IS D BEST ***   *** TPB IS D BEST ***   *** TPB IS D BEST *** 	  *
*      *******************     *******************     *******************	  *
*       *****************       *****************       *****************         *
*        ***************         ***************         ***************          *
*         *************           *************           *************	 	  *
*          ***********             ***********             ***********            *
*           *********               *********               *********             *
*            *******                 *******                 *******              *
*             *****                   *****		      *****               *
*	       ***                     ***                     ***                *
*	        *                       *                       *                 *
*										  *
*										  *
***************************** TPB IS BENEDICTION TO ME ****************************


